<svg width="200" height="200" viewBox="0 0 200 200" fill="none" xmlns="http://www.w3.org/2000/svg">
  <circle cx="100" cy="100" r="100" fill="#228B22"/>
  <path d="M40 80C40 80 70 50 120 60C170 70 180 130 160 160C140 190 60 180 40 140C20 100 40 80 40 80Z" fill="#006400"/>
  <path d="M60 70C60 70 90 60 120 70C150 80 160 110 140 140C120 170 70 160 60 120C50 80 60 70 60 70Z" fill="#F5F5F5" opacity="0.7"/>
  <path d="M80 90C80 90 100 80 120 90C140 100 150 120 130 140C110 160 70 150 80 90Z" fill="#F5F5F5" opacity="0.9"/>
</svg>