<svg width="200" height="200" viewBox="0 0 200 200" fill="none" xmlns="http://www.w3.org/2000/svg">
  <circle cx="100" cy="100" r="100" fill="#228B22"/>
  <path d="M50 70C50 70 80 40 120 50C160 60 170 120 150 150C130 180 70 170 50 130C30 90 50 70 50 70Z" fill="#006400"/>
  <path d="M70 90C70 90 90 70 110 80C130 90 140 120 120 140C100 160 60 150 70 90Z" fill="#B7410E"/>
  <path d="M80 100C80 100 90 90 100 95C110 100 115 115 105 125C95 135 75 130 80 100Z" fill="#8B4513"/>
  <circle cx="90" cy="110" r="5" fill="#B7410E"/>
  <circle cx="110" cy="90" r="5" fill="#B7410E"/>
  <circle cx="120" cy="110" r="5" fill="#B7410E"/>
</svg>